# xmcd CD database file
#
# Track frame offsets:
#	150
#	13945
#	34672
#	49637
#	63535
#	77225
#	99310
#	119527
#	135947
#	156347
#	170740
#	183462
#	198832
#	228290
#	248607
#
# Disc length: 3669 seconds
#
# Revision: 0
# Processed by: cddbd v1.4PL0 Copyright (c) Steve Scherf et al.
# Submitted via: CDex 1.50
#
DISCID=c20e530f
DTITLE=JazzClassics - Coffeemusic - coffee meets latin - volume 3
DYEAR=1900
DGENRE=Jazz
TTITLE0=All of me - (Simons/Marks) Billie Holiday and her Orchestra
TTITLE1=Sweet Lorraine - (Burwell, C./Parish, M.) Nat King Cole Trio
TTITLE2=Georgia on my mind - (Carmichael, H./Gorrell, S.) Billie Holiday
TTITLE3=(I love you) for a sentimental reason - (Best, W./Watson, D.) Nat King Cole Trio
TTITLE4=April in Paris - (Duke/Harburg) Billie Holiday and her Orchestra
TTITLE5=I´ve grown accustomed to her Face - (Lerner, A. J./Loewe, F.) Sonny Rollins Quartet
TTITLE6=What a wonderful World - (Weiss/Thiele) Les McCann/Joja Wendt
TTITLE7=Aguas de Marco - (Jobim, A. C.) Agustin Pereyra Lucena
TTITLE8=Only trust your heart - (Carter/Cahn) Stan Getz and Astrud Gilberto
TTITLE9=Samba de minha terra - (Caymmi, D.) Stan Getz and Joao and Astrud Gilberto
TTITLE10=Corcovado (quiet nights) - (Jobim/Lees) Stan Getz and Astrud Gilberto
TTITLE11=One note Samba - (Jobim/Mendonca/Hendricks) Stan Getz and Astrud Gilberto
TTITLE12=Autumn in New York - (Duke, V.) Dexter Gordon Quartet
TTITLE13=Aint´t no hour tp late - (Inga Rumpf) Inga Rumpf
TTITLE14=Round midnight - (Monk, T.) M.Davies Quintet with J.Coltrane
EXTD=
EXTT0=
EXTT1=
EXTT2=
EXTT3=
EXTT4=
EXTT5=
EXTT6=
EXTT7=
EXTT8=
EXTT9=
EXTT10=
EXTT11=
EXTT12=
EXTT13=
EXTT14=
PLAYORDER=
